<svg width="454" height="497" viewBox="0 0 454 497" fill="none" xmlns="http://www.w3.org/2000/svg">
<path d="M99.7546 13.1428V482.945C99.7546 491.557 107.566 498.059 116.035 496.497L402.43 443.669C409.259 442.409 414.555 436.986 415.653 430.129L453.07 196.448C454.168 189.591 450.83 182.786 444.735 179.457L119.17 1.62483C110.424 -3.15237 99.7546 3.17728 99.7546 13.1428Z" fill="#F5F7F9"/>
<path d="M80.1799 124.5C78.8367 122.308 78.1651 121.212 78.6308 120.38C79.0966 119.549 80.3821 119.549 82.9531 119.549H132.768C135.483 119.561 138.147 120.252 140.491 121.553C142.836 122.854 144.778 124.719 146.123 126.959L217.95 246.137C218.22 246.56 218.362 247.044 218.362 247.538C218.362 248.032 218.22 248.517 217.95 248.94L147.173 365.98C145.492 368.853 143.034 371.247 140.053 372.917C137.073 374.587 133.677 375.472 130.217 375.48H82.9396C80.3738 375.48 79.0909 375.48 78.6249 374.65C78.1589 373.82 78.8269 372.725 80.1631 370.534L153.306 250.624C154.314 248.972 154.818 248.146 154.817 247.23C154.816 246.315 154.31 245.489 153.299 243.839L80.1799 124.5Z" fill="#0F6FFF"/>
<path d="M88.8721 150.926C88.8721 148.435 90.8912 146.416 93.3819 146.416H190.218C192.709 146.416 194.728 148.435 194.728 150.926V218.613C194.728 221.104 192.709 223.123 190.218 223.123H93.3819C90.8912 223.123 88.8721 221.104 88.8721 218.613V150.926Z" fill="white"/>
<path fill-rule="evenodd" clip-rule="evenodd" d="M88.4702 216.76C88.4702 219.949 88.4702 221.543 89.4609 222.534C90.4515 223.525 92.046 223.525 95.2349 223.525H188.36C191.549 223.525 193.143 223.525 194.134 222.534C195.125 221.543 195.125 219.949 195.125 216.76V152.78C195.125 149.591 195.125 147.997 194.134 147.006C193.143 146.015 191.549 146.015 188.36 146.015H95.2349C92.046 146.015 90.4515 146.015 89.4609 147.006C88.4702 147.997 88.4702 149.591 88.4702 152.78V216.76ZM194.322 215.957C194.322 219.146 194.322 220.741 193.331 221.731C192.341 222.722 190.746 222.722 187.557 222.722H96.0337C92.8446 222.722 91.2501 222.722 90.2594 221.731C89.2687 220.741 89.2688 219.146 89.269 215.957L89.2723 153.582C89.2724 150.393 89.2725 148.799 90.2632 147.808C91.2538 146.818 92.8482 146.818 96.037 146.818H187.557C190.746 146.818 192.341 146.818 193.331 147.808C194.322 148.799 194.322 150.394 194.322 153.583V215.957Z" fill="#001524"/>
<path fill-rule="evenodd" clip-rule="evenodd" d="M101.139 184.744C100.99 184.907 100.736 184.919 100.573 184.77C100.409 184.621 100.397 184.367 100.546 184.204L112.31 171.296C112.538 171.045 112.935 171.051 113.155 171.309L118.936 178.078C119.162 178.343 119.574 178.341 119.797 178.072L134.361 160.597C134.554 160.365 134.897 160.327 135.137 160.511L146.316 169.087C146.501 169.229 146.755 169.242 146.954 169.12L161.311 160.321C161.5 160.205 161.746 160.265 161.862 160.453C161.978 160.642 161.919 160.889 161.73 161.005L146.903 170.093C146.704 170.214 146.451 170.201 146.265 170.059L135.26 161.616C135.02 161.432 134.677 161.47 134.484 161.702L119.805 179.316C119.582 179.585 119.171 179.587 118.944 179.321L113.135 172.521C112.915 172.263 112.518 172.257 112.29 172.507L101.139 184.744Z" fill="#001524"/>
<path fill-rule="evenodd" clip-rule="evenodd" d="M166.148 157.581C166.348 157.549 166.486 157.775 166.367 157.937L161.982 163.912C161.855 164.086 161.58 163.999 161.575 163.784L161.501 160.674L158.764 159.198C158.575 159.095 158.622 158.811 158.835 158.777L166.148 157.581Z" fill="#001524"/>
<path fill-rule="evenodd" clip-rule="evenodd" d="M102.917 197.956L102.33 197.407C104.023 195.704 105.974 194.278 108.112 193.181C112.754 190.803 117.423 190.609 121.62 192.621C125.927 194.687 131.493 194.941 137.29 193.335C141.982 192.035 146.385 189.58 148.229 187.224C150.073 184.869 152.696 182.924 155.374 181.931C158.415 180.802 161.277 180.916 163.651 182.262C165.982 183.582 169.352 181.935 171.769 180.321C173.502 179.141 175.124 177.808 176.617 176.338L177.19 176.899C175.664 178.41 174.002 179.776 172.225 180.981C168.432 183.522 165.415 184.183 163.256 182.959C160.525 181.412 157.614 181.955 155.653 182.684C153.112 183.62 150.634 185.463 148.86 187.72C146.913 190.2 142.348 192.767 137.504 194.109C131.521 195.766 125.756 195.495 121.272 193.344C117.26 191.421 112.968 191.606 108.502 193.879C106.441 194.941 104.557 196.316 102.917 197.956Z" fill="#FFD355"/>
<path d="M152.053 200.941C152.053 200.728 152.053 200.622 152.119 200.556C152.185 200.49 152.292 200.49 152.504 200.49H156.356C156.568 200.49 156.674 200.49 156.741 200.556C156.807 200.622 156.807 200.728 156.807 200.941V213.183H152.053V200.941Z" fill="#001524"/>
<path d="M158.373 197.646C158.373 197.434 158.373 197.328 158.439 197.262C158.505 197.195 158.612 197.195 158.824 197.195H162.675C162.888 197.195 162.994 197.195 163.06 197.262C163.126 197.328 163.126 197.434 163.126 197.646V213.184H158.373V197.646Z" fill="#001524"/>
<path d="M164.693 194.972C164.693 194.759 164.693 194.653 164.759 194.587C164.825 194.521 164.932 194.521 165.144 194.521H168.995C169.208 194.521 169.314 194.521 169.38 194.587C169.446 194.653 169.446 194.759 169.446 194.972V213.184H164.693V194.972Z" fill="#001524"/>
<path d="M171.014 188.248C171.014 188.036 171.014 187.929 171.08 187.863C171.146 187.797 171.253 187.797 171.465 187.797H175.316C175.529 187.797 175.635 187.797 175.701 187.863C175.767 187.929 175.767 188.035 175.767 188.248V213.186H171.014V188.248Z" fill="#001524"/>
<path fill-rule="evenodd" clip-rule="evenodd" d="M68.3652 139.934C68.3652 139.934 69.9113 139.853 69.605 142.218C69.2987 144.583 62.1154 152.9 62.1154 152.9L58.2195 150.551L68.3652 139.934Z" fill="#FBF6EE"/>
<path fill-rule="evenodd" clip-rule="evenodd" d="M57.5829 150.636L62.1957 153.418L62.4164 153.16C62.4351 153.139 64.2419 151.044 66.0622 148.689C68.5765 145.438 69.8698 143.339 70.0036 142.269C70.132 141.27 69.9728 140.52 69.5275 140.04C69.2229 139.711 68.7924 139.527 68.3438 139.534L68.1847 139.542L57.5829 150.636ZM62.0274 152.381L58.8524 150.466L68.5126 140.351C68.6765 140.385 68.8254 140.469 68.9379 140.593C69.2054 140.889 69.3004 141.433 69.2054 142.166C68.9754 143.943 64.1432 149.908 62.0274 152.381Z" fill="#001524"/>
<path fill-rule="evenodd" clip-rule="evenodd" d="M61.5352 151.5C61.5352 151.5 69.1585 143.609 68.6115 140.372C68.0645 137.136 56.6737 150.15 56.6737 150.15L61.5352 151.5Z" fill="white"/>
<path fill-rule="evenodd" clip-rule="evenodd" d="M55.9514 150.366L61.6568 151.951L61.828 151.778C61.8535 151.758 63.77 149.763 65.5982 147.395C68.1073 144.151 69.2548 141.766 69.0127 140.307C68.9164 139.732 68.5593 139.55 68.3547 139.491C67.9356 139.373 66.8326 139.063 61.4001 144.511C58.8891 147.028 56.5832 149.645 56.3849 149.87C56.3769 149.879 56.3723 149.885 56.3713 149.886L55.9514 150.366ZM61.4125 151.049L57.4002 149.935C58.2 149.04 60.0216 147.029 61.9702 145.078C66.8251 140.208 67.9552 140.212 68.1318 140.263C68.1705 140.274 68.2 140.334 68.2173 140.438C68.6226 142.869 63.5939 148.758 61.4125 151.049Z" fill="#001524"/>
<path fill-rule="evenodd" clip-rule="evenodd" d="M62.6557 152.036C62.6557 152.036 66.4915 153.657 69.3001 159.167C69.3001 159.167 70.6495 160.787 72.7025 160.787C74.7554 160.787 75.5659 161.922 75.4041 162.354C75.2423 162.786 71.9482 164.594 72.1622 165.378C72.3909 166.215 75.3854 172.347 71.0641 174.652C66.6159 177.024 65.788 177.424 65.788 177.424C65.788 177.424 67.5173 187.634 68.3813 188.391L77.6189 190.444C77.6189 190.444 71.5683 201.518 63.7899 201.193C56.0114 200.868 44.0735 195.197 44.0735 195.197L52.3388 190.552C52.3388 190.552 52.0713 180.451 51.42 174.779C50.7687 169.107 62.6557 152.036 62.6557 152.036Z" fill="white"/>
<path fill-rule="evenodd" clip-rule="evenodd" d="M63.7738 201.593C63.8875 201.6 64.0012 201.6 64.1162 201.6C67.318 201.6 70.699 199.743 73.9209 196.217C75.4682 194.51 76.8269 192.641 77.9733 190.642L78.2287 190.174L68.5992 188.034C68.095 187.268 67.0358 182.299 66.2333 177.657C66.7349 177.402 68.0603 176.716 71.2527 175.013C75.3867 172.808 73.3739 167.481 72.7118 165.73C72.6423 165.548 72.5821 165.388 72.5567 165.302C72.645 164.941 73.953 164.005 74.5174 163.604L74.5496 163.58C75.4004 162.973 75.6808 162.772 75.7799 162.501C75.8802 162.227 75.8107 161.888 75.5873 161.565C75.396 161.29 74.6217 160.388 72.7025 160.388C71.0173 160.388 69.823 159.151 69.6344 158.943C68.1566 156.062 66.3992 154.247 65.1821 153.23C63.8407 152.111 62.8537 151.687 62.8122 151.67L62.5126 151.536L62.3267 151.803C61.8372 152.506 50.3634 169.068 51.0214 174.819C51.6046 179.924 51.8841 188.746 51.9309 190.316L43.2015 195.222L43.901 195.559C44.3918 195.791 56.002 201.269 63.7738 201.593ZM63.8074 200.791C57.278 200.519 47.6325 196.363 44.9577 195.159L52.7348 190.769V190.527C52.7346 190.522 52.7339 190.498 52.7327 190.456C52.7058 189.541 52.4281 180.093 51.8133 174.718C51.5579 172.491 53.3982 167.911 57.1336 161.478C59.561 157.297 62.0754 153.576 62.7842 152.541C63.7097 153.037 66.6628 154.889 68.9364 159.34L68.9578 159.381L68.9859 159.415C69.0461 159.488 70.4825 161.179 72.6972 161.179C74.0093 161.179 74.6111 161.668 74.8117 161.876C74.9053 161.965 74.9748 162.076 75.0137 162.199C74.7052 162.462 74.3819 162.708 74.0454 162.935C72.5474 164.005 71.5778 164.766 71.7717 165.477C71.7977 165.579 71.8484 165.712 71.9174 165.894C71.9302 165.927 71.9436 165.962 71.9576 166C72.9982 168.756 74.0199 172.613 70.8716 174.292C66.4983 176.624 65.6182 177.057 65.6102 177.057L65.3427 177.191L65.3935 177.488C65.3976 177.516 65.8336 180.08 66.3685 182.704C67.4759 188.13 67.9253 188.523 68.1179 188.692L68.1941 188.758L76.9957 190.715C75.7492 192.788 70.3367 201.064 63.8074 200.791Z" fill="#001524"/>
<path fill-rule="evenodd" clip-rule="evenodd" d="M15.5796 230.416C15.5796 230.416 9.90757 239.652 9.90757 243.217C9.90757 246.783 12.014 252.697 27.9762 264.365C43.9384 276.033 47.3395 277.329 47.3395 277.329L46.3672 268.254C46.3672 268.254 28.7038 248.693 29.1144 246.722C29.5249 244.75 31.3024 241.918 31.3024 241.918L15.5796 230.416Z" fill="white"/>
<path fill-rule="evenodd" clip-rule="evenodd" d="M47.1979 277.705L47.8091 277.938L46.7485 268.078L46.6603 267.982C46.6175 267.938 42.2668 263.115 37.9871 258.085C30.0454 248.749 29.4824 247.085 29.4971 246.807C29.885 244.952 31.5847 242.219 31.6359 242.137L31.637 242.135L31.8362 241.818L15.4648 229.835L15.2361 230.206C15.002 230.588 9.50521 239.582 9.50521 243.218C9.50521 246.714 11.395 252.743 27.7384 264.689C43.5628 276.257 47.0561 277.652 47.1979 277.705ZM13.0977 235.664C14.1637 233.593 15.2403 231.756 15.6964 230.994L30.7678 242.024C30.285 242.833 29.0586 244.998 28.7216 246.641C28.6293 247.066 28.4246 248.062 37.2811 258.484C41.2653 263.171 45.3404 267.709 45.9837 268.423L46.8651 276.648C45.3177 275.834 40.4869 273.011 28.212 264.038C20.5258 258.419 10.3079 250.149 10.3079 243.214C10.3079 241.816 11.2721 239.21 13.0977 235.664Z" fill="#001524"/>
<path fill-rule="evenodd" clip-rule="evenodd" d="M118.891 217.127C118.891 217.127 122.942 219.936 124.563 218.37C126.184 216.804 134.123 188.607 134.205 187.391C134.286 186.175 132.143 184.77 132.287 180.773C132.411 177.319 128.902 175.228 129.119 174.471C129.335 173.714 131.604 173.752 132.755 175.335C133.907 176.919 134.376 176.705 134.376 176.705C134.376 176.705 134.087 167.918 134.196 165.505C134.296 163.27 135.667 163.452 136.068 164.244C136.469 165.036 137.539 173.86 137.539 173.86C137.539 173.86 141.032 173.459 144.273 176.134C144.273 176.134 145.318 176.669 145.03 178.87C144.742 181.072 143.122 186.181 142.005 188.125C142.005 188.125 142.762 233.723 130.554 240.742C118.346 247.761 100.087 228.854 100.087 228.854L118.891 217.127Z" fill="white"/>
<path fill-rule="evenodd" clip-rule="evenodd" d="M120.555 242.232C121.837 242.535 123.148 242.692 124.465 242.7C126.782 242.7 128.885 242.165 130.751 241.086C135.93 238.108 139.465 228.268 141.253 211.842C142.509 200.316 142.42 189.428 142.405 188.224C143.583 186.102 145.143 181.078 145.425 178.918C145.708 176.717 144.741 175.953 144.505 175.802C142.646 174.262 140.304 173.425 137.89 173.439C137.63 171.363 136.797 164.826 136.419 164.066C136.146 163.522 135.552 163.212 135.008 163.328C134.667 163.4 133.863 163.756 133.786 165.488C133.694 167.537 133.881 174.037 133.946 176.096C133.615 175.801 133.322 175.467 133.071 175.101C132.196 173.898 130.72 173.451 129.713 173.63C129.19 173.722 128.83 173.99 128.723 174.363C128.588 174.834 128.995 175.296 129.608 175.995L129.614 176.001L129.634 176.025C130.56 177.083 131.952 178.674 131.877 180.761C131.78 183.426 132.68 185.026 133.276 186.084C133.578 186.622 133.816 187.046 133.796 187.366C133.756 187.911 131.843 194.976 129.563 202.65C126.391 213.326 124.751 217.622 124.275 218.082C123.142 219.178 120.162 217.527 119.11 216.798L118.893 216.649L99.4507 228.772L99.7958 229.129C99.8443 229.179 104.465 233.936 110.525 237.765C114.105 240.024 117.479 241.527 120.555 242.232ZM110.97 237.096C105.945 233.917 101.91 230.09 100.729 228.925L118.874 217.609C119.535 218.034 120.231 218.402 120.954 218.711C122.73 219.449 124.03 219.433 124.832 218.663C125.587 217.932 127.439 212.617 130.336 202.866C132.4 195.925 134.549 188.13 134.596 187.422C134.633 186.864 134.343 186.348 133.975 185.694C133.391 184.654 132.592 183.213 132.679 180.792C132.766 178.371 131.232 176.628 130.217 175.473C129.926 175.143 129.568 174.736 129.508 174.565C129.606 174.484 129.725 174.435 129.852 174.423C130.444 174.317 131.667 174.538 132.422 175.576C133.599 177.186 134.248 177.206 134.535 177.073L134.776 176.962L134.768 176.694C134.764 176.606 134.482 167.895 134.588 165.525C134.63 164.568 134.918 164.168 135.175 164.113C135.4 164.093 135.612 164.219 135.7 164.427C135.934 164.903 136.618 169.67 137.138 173.911L137.186 174.304L137.587 174.261C137.619 174.257 140.96 173.924 144.022 176.441L144.046 176.463L144.083 176.483C144.115 176.501 144.876 176.97 144.634 178.815C144.359 180.916 142.774 185.981 141.66 187.923L141.605 188.018V188.129C141.608 188.243 141.779 199.644 140.46 211.756C138.268 231.882 133.754 238.436 130.355 240.392C127.662 241.939 124.428 242.296 120.741 241.454C117.753 240.77 114.466 239.303 110.97 237.096Z" fill="#001524"/>
<path fill-rule="evenodd" clip-rule="evenodd" d="M99.5986 385.596L100.647 396.826L90.7489 397.674L87.0201 379.664L99.5986 385.596Z" fill="white"/>
<path fill-rule="evenodd" clip-rule="evenodd" d="M86.4641 378.964L90.4283 398.109L101.078 397.198L99.9721 385.335L86.4641 378.964ZM91.0724 397.243L87.575 380.376L99.2227 385.86L100.212 396.461L91.0724 397.243Z" fill="#001524"/>
<path fill-rule="evenodd" clip-rule="evenodd" d="M58.0261 385.653L59.0746 396.883L49.1763 397.73L45.4476 379.721L58.0261 385.653Z" fill="white"/>
<path fill-rule="evenodd" clip-rule="evenodd" d="M44.8927 379.015L48.8555 398.16L59.5081 397.248L58.4007 385.386L44.8927 379.015ZM49.4972 397.307L46.0012 380.426L57.6488 385.924L58.6372 396.525L49.4972 397.307Z" fill="#001524"/>
<path fill-rule="evenodd" clip-rule="evenodd" d="M89.8696 395.576C89.8696 395.576 97.1974 394.947 100.082 391.665C100.082 391.665 113.332 401.383 116.483 403.033C116.483 403.033 120.272 405.547 118.575 409.531C113.138 409.837 89.9632 409.61 89.9632 409.61C89.9632 409.61 90.0876 398.51 89.8696 395.576Z" fill="#001524"/>
<path fill-rule="evenodd" clip-rule="evenodd" d="M99.6848 391.716L99.8293 392.844L100.424 391.875C104.057 385.963 105.576 381.192 104.296 379.721C103.965 379.34 103.307 379.001 102.056 379.548C100.474 380.24 99.5992 382.525 99.4575 386.341C99.4016 388.136 99.4775 389.932 99.6848 391.716ZM102.378 380.283C102.642 380.157 102.928 380.083 103.221 380.065C103.396 380.053 103.568 380.12 103.69 380.248C104.476 381.151 103.546 384.976 100.357 390.426C100.086 387.145 100.092 381.283 102.378 380.283Z" fill="#001524"/>
<path fill-rule="evenodd" clip-rule="evenodd" d="M99.94 392.038C100.451 392.236 103.889 393.509 106.377 393.509C107.296 393.509 108.085 393.335 108.548 392.86C109.085 392.319 109.147 391.506 108.732 390.436C108.265 389.241 107.518 388.52 106.508 388.296C103.72 387.678 99.964 391.221 99.8062 391.372L99.3461 391.811L99.94 392.038ZM107.978 392.304C107.042 393.247 103.353 392.391 100.855 391.519C101.921 390.62 104.49 388.674 106.329 389.085C107.071 389.25 107.61 389.789 107.978 390.735C108.273 391.48 108.272 392.007 107.978 392.304Z" fill="#001524"/>
<path fill-rule="evenodd" clip-rule="evenodd" d="M48.2982 395.635C48.2982 395.635 55.6259 395.006 58.5107 391.723C58.5107 391.723 71.7606 401.442 74.9129 403.091C74.9129 403.091 78.7005 405.602 77.0047 409.588C71.5667 409.894 48.3918 409.609 48.3918 409.609C48.3918 409.609 48.5148 398.562 48.2982 395.635Z" fill="#001524"/>
<path fill-rule="evenodd" clip-rule="evenodd" d="M58.1136 391.775L58.2581 392.903L58.8532 391.933C62.4843 386.022 64.0037 381.251 62.7237 379.78C62.3921 379.399 61.734 379.06 60.4835 379.607C58.9014 380.299 58.0267 382.584 57.8849 386.4C57.8283 388.195 57.9047 389.992 58.1136 391.775ZM60.8069 380.342C61.0711 380.216 61.3572 380.142 61.6495 380.124C61.8258 380.112 61.9981 380.179 62.1203 380.307C62.9054 381.21 61.9745 385.035 58.7874 390.485C58.5146 387.204 58.5199 381.342 60.8069 380.342Z" fill="#001524"/>
<path fill-rule="evenodd" clip-rule="evenodd" d="M58.3674 392.091C58.8796 392.289 62.3182 393.562 64.8044 393.562C65.7232 393.562 66.5123 393.392 66.9751 392.913C67.5127 392.372 67.5756 391.558 67.1596 390.489C66.6929 389.294 65.9453 388.573 64.9355 388.349C62.1483 387.731 58.3928 391.274 58.2337 391.425L57.7736 391.863L58.3674 392.091ZM59.2852 391.573C59.2841 391.572 59.2829 391.572 59.2818 391.572V391.576C59.2829 391.575 59.2841 391.574 59.2852 391.573ZM66.4063 392.357C65.4705 393.299 61.7834 392.444 59.2852 391.573C60.3531 390.672 62.9162 388.731 64.7559 389.138C65.4982 389.303 66.0372 389.842 66.4063 390.787C66.7019 391.533 66.6992 392.06 66.4063 392.357Z" fill="#001524"/>
<path fill-rule="evenodd" clip-rule="evenodd" d="M101.277 325.695C99.7908 336.395 101.277 385.595 101.277 385.595C97.8114 386.932 85.4015 387.2 85.4015 387.2C82.5447 377.57 76.1732 339.867 75.8415 331.31C75.5098 322.753 67.817 297.616 67.817 297.616C67.817 297.616 65.6182 323.295 64.575 329.974C63.5318 336.653 58.7786 388.536 58.7786 388.536H45.0446C45.0446 388.536 41.8843 354.574 40.5656 344.413C39.2468 334.251 42.1036 329.968 40.5656 311.789C39.9677 304.717 39.6013 294.203 39.3779 283.998C39.0275 267.965 39.0275 252.691 39.0275 252.691L94.6324 243.864C94.6324 243.864 102.764 314.997 101.277 325.695Z" fill="#FFD355"/>
<path fill-rule="evenodd" clip-rule="evenodd" d="M44.6778 388.938H59.1461L59.1742 388.565C59.217 388.047 63.9368 336.623 64.9679 330.029C65.8266 324.528 67.4823 306 68.032 299.733C69.8482 305.861 75.1671 324.318 75.4346 331.319C75.777 340.229 82.2221 377.908 85.0119 387.307L85.0989 387.599H85.4052C85.9147 387.589 97.9248 387.315 101.415 385.969L101.683 385.866L101.674 385.583C101.673 385.562 101.67 385.46 101.665 385.282C101.548 381.138 100.263 335.856 101.674 325.75C103.151 315.124 95.3623 246.727 95.0306 243.821L94.9825 243.403L38.626 252.348V252.691C38.626 252.844 38.63 268.154 38.9764 284.006C39.2452 296.311 39.6451 305.673 40.1653 311.825C40.9972 321.651 40.5318 327.516 40.1573 332.227L40.1564 332.238C39.8358 336.282 39.5587 339.777 40.168 344.466C41.4318 354.205 44.4263 386.242 44.6333 388.456L44.6444 388.574L44.6778 388.938ZM58.4147 388.136H45.4096C45.0659 384.441 42.1957 353.851 40.964 344.365C40.3648 339.755 40.639 336.296 40.9573 332.292C41.3344 327.551 41.8025 321.655 40.9653 311.758C40.4477 305.623 40.0465 296.281 39.779 283.992C39.4607 269.462 39.4286 255.388 39.4286 253.036L94.2805 244.33C94.9452 250.203 102.284 315.544 100.879 325.646C99.4644 335.824 100.748 381.223 100.867 385.321C97.5117 386.42 87.5733 386.74 85.7009 386.792C82.8763 376.958 76.5797 340.089 76.2413 331.297C75.9136 322.785 68.5176 298.528 68.2034 297.5L67.5962 295.518L67.4196 297.583C67.3982 297.84 65.2102 323.318 64.1804 329.912C63.192 336.244 58.8414 383.486 58.4147 388.136Z" fill="#001524"/>
<path fill-rule="evenodd" clip-rule="evenodd" d="M60.9346 255.39C60.9346 255.39 50.9774 259.504 46.2804 260.622C41.5833 261.74 39.0275 270.303 39.0275 270.303L39.0409 257.39C39.0409 257.39 59.5169 254.441 60.9346 255.39Z" fill="#001524"/>
<path fill-rule="evenodd" clip-rule="evenodd" d="M61.2062 272.06C61.2062 272.06 66.8662 290.231 67.7462 296.115L63.5721 338.645C63.5721 338.645 59.9289 323.311 61.2062 311.878C62.2039 302.941 61.2062 272.06 61.2062 272.06Z" fill="#001524"/>
<path fill-rule="evenodd" clip-rule="evenodd" d="M64.3981 153.118C64.3981 153.118 62.2769 154.144 62.0068 156.462C61.7366 158.779 61.5213 161.863 62.0068 163.43C62.4922 164.996 60.117 161.863 58.2793 163.162C56.4417 164.461 57.1773 168.428 57.8474 167.59C57.9557 167.457 56.3628 178.156 50.1772 180.285C47.5211 181.201 44.2925 163.918 44.5052 162.784C44.7178 161.649 55.9027 148.741 62.6554 152.033L64.3981 153.118Z" fill="#001524"/>
<path fill-rule="evenodd" clip-rule="evenodd" d="M45.9019 170.755C45.9019 170.755 56.822 161.571 62.6558 152.031C62.6558 152.031 61.1967 147.278 52.6893 148.655C44.1819 150.033 40.9628 159.544 42.561 164.536C43.6764 168.026 45.9019 170.755 45.9019 170.755Z" fill="white"/>
<path fill-rule="evenodd" clip-rule="evenodd" d="M45.5896 171.014L45.8477 171.323L46.1593 171.062C46.269 170.971 57.1971 161.727 62.9975 152.247L63.0911 152.093L63.039 151.92C63.0385 151.918 63.0377 151.916 63.0367 151.913C62.9987 151.802 62.575 150.565 61.0943 149.512C59.1109 148.1 56.2609 147.683 52.6244 148.271C49.0334 148.853 45.9573 150.965 43.9619 154.217C41.9464 157.505 41.2295 161.706 42.1791 164.671C43.3039 168.187 45.4973 170.9 45.5896 171.014ZM52.7526 149.055C53.6844 148.899 54.6271 148.818 55.5719 148.813C57.6288 148.813 59.3327 149.256 60.5819 150.12C61.2814 150.588 61.8429 151.234 62.2082 151.992C57.0109 160.394 47.788 168.586 45.9611 170.169C45.3499 169.356 43.8025 167.102 42.9425 164.418C42.0598 161.663 42.7446 157.728 44.6464 154.63C45.9705 152.471 48.4514 149.752 52.7526 149.055Z" fill="#001524"/>
<path fill-rule="evenodd" clip-rule="evenodd" d="M65.7873 177.074C65.7873 177.074 62.766 178.504 61.6493 178.722C60.8696 178.869 60.0992 180.37 63.63 182.547C67.1608 184.724 67.3427 185.479 67.3427 185.479L65.7873 177.074Z" fill="#001524"/>
<path fill-rule="evenodd" clip-rule="evenodd" d="M45.3969 192.657C45.3969 192.657 49.8532 196.06 55.8489 196.547C61.8446 197.034 69.1643 196.87 77.6182 188.768C77.6182 188.768 93.4453 194.022 100.899 201.206C108.352 208.391 120.67 215.831 120.67 215.831C120.67 215.831 119.859 225.229 107.867 239.167L97.4923 231.712L99.5988 249.862C99.5988 249.862 88.553 254.723 68.6333 255.047C48.7137 255.371 38.0196 257.477 38.0196 257.477L34.6159 240.626L32.8331 244.191C32.8331 244.191 19.5458 239.977 12.4146 229.282C12.4146 229.282 19.8694 215.022 22.9482 210.322C26.0269 205.622 35.1067 195.574 45.3969 192.657Z" fill="#FBF6EE"/>
<path fill-rule="evenodd" clip-rule="evenodd" d="M34.4581 241.846L37.7094 257.947L38.1026 257.868C38.1059 257.868 38.1194 257.865 38.1432 257.861C38.8857 257.724 49.6088 255.754 68.6454 255.445C88.4166 255.126 99.655 250.278 99.766 250.229L100.033 250.11L97.9953 232.572L107.927 239.711L108.168 239.432C114.399 232.193 117.571 226.191 119.135 222.43C120.84 218.328 121.059 215.968 121.067 215.869L121.089 215.621L120.876 215.488L120.874 215.487C120.667 215.361 108.486 207.949 101.176 200.91C93.7585 193.769 77.9709 188.464 77.7439 188.388L77.7426 188.387L77.5139 188.311L77.3387 188.478C68.9865 196.483 61.8834 196.634 55.8797 196.147C50.0793 195.682 45.6818 192.372 45.639 192.338L45.4785 192.216L45.2859 192.271C39.5524 193.896 34.4635 197.654 31.2041 200.519C27.1852 204.053 24.1332 207.785 22.6152 210.102C19.6489 214.627 12.5624 228.138 12.0862 229.046C12.072 229.073 12.0637 229.089 12.0616 229.093L11.9519 229.305L12.0856 229.503C15.8117 235.093 21.2256 238.891 25.1041 241.094C29.305 243.477 32.682 244.561 32.7168 244.571L33.0431 244.674L34.4581 241.846ZM38.338 257.011L34.7831 239.401L32.6298 243.705C30.5755 242.98 19.2623 238.662 12.8801 229.261C13.8189 227.471 20.4539 214.865 23.2826 210.546C24.7751 208.275 27.771 204.605 31.7297 201.128C34.8914 198.349 39.7998 194.716 45.3127 193.103C46.182 193.731 50.34 196.509 55.8115 196.953C58.711 197.188 62.1776 197.291 65.9117 196.27C70.043 195.143 73.9055 192.843 77.7132 189.232C79.6765 189.908 93.7944 194.925 100.615 201.494C107.467 208.091 118.529 214.994 120.234 216.043C120.132 216.738 119.734 218.902 118.368 222.174C115.644 228.708 111.168 234.68 107.803 238.624L96.9922 230.855L99.1695 249.606C98.3537 249.935 95.7189 250.934 91.4686 251.949C86.702 253.087 78.87 254.478 68.6307 254.645C50.9927 254.933 40.4498 256.638 38.338 257.011Z" fill="#001524"/>
<path fill-rule="evenodd" clip-rule="evenodd" d="M31.4881 223.124C31.4881 223.124 34.0881 235.949 34.8731 239.833L32.8376 244.191C32.8376 244.191 32.6757 238.249 30.9478 236.087C29.2198 233.926 31.4881 223.124 31.4881 223.124Z" fill="#001524"/>
<path fill-rule="evenodd" clip-rule="evenodd" d="M79.4374 217.781C79.4374 217.781 89.9175 228.043 97.2639 231.124L98.3111 240.147C98.3111 240.147 95.5346 235.822 90.9968 233.986C86.4589 232.149 83.9726 224.695 79.4374 217.781Z" fill="#001524"/>
<path fill-rule="evenodd" clip-rule="evenodd" d="M18.5627 236.076C18.5627 236.076 26.0644 241.608 30.5046 243.298C30.5046 243.298 28.5761 246.117 29.2488 247.31C29.2488 247.31 27.5703 244.428 25.2204 243.374C22.8706 242.32 18.5627 236.076 18.5627 236.076Z" fill="#001524"/>
<path fill-rule="evenodd" clip-rule="evenodd" d="M89.7353 267.594C96.2887 263.91 96.1549 256.65 96.1549 256.65L95.7938 254.324C95.7938 254.324 90.3893 267.245 89.7393 267.594" fill="#001524"/>
<path fill-rule="evenodd" clip-rule="evenodd" d="M93.8334 383.277C93.6355 383.279 93.4652 383.138 93.4322 382.942C91.4087 370.871 93.6328 349.061 94.9622 336.031C95.3634 332.067 95.6858 328.934 95.7647 327.245C96.087 320.165 87.5408 253.387 87.4539 252.713C87.4258 252.492 87.5827 252.289 87.8043 252.261C88.0259 252.233 88.2283 252.39 88.2563 252.611C88.6081 255.364 96.8975 320.131 96.5711 327.283C96.4936 328.993 96.1699 332.135 95.7687 336.11C94.4433 349.1 92.2272 370.841 94.232 382.806C94.2498 382.911 94.2251 383.019 94.1634 383.106C94.1017 383.192 94.008 383.251 93.903 383.269C93.8801 383.273 93.8568 383.276 93.8334 383.277Z" fill="#001524"/>
<path fill-rule="evenodd" clip-rule="evenodd" d="M48.4632 388.142L45.4031 388.159C45.4031 388.159 42.1238 354.575 40.8051 344.414C39.4864 334.252 42.3444 329.969 40.8051 311.79C40.2072 304.717 39.8408 294.204 39.6188 283.999C40.8358 291.671 44.7251 318.074 43.4425 334.712C41.9312 354.345 48.4632 388.142 48.4632 388.142Z" fill="white"/>
<path fill-rule="evenodd" clip-rule="evenodd" d="M35.4799 211.098C36.6867 210.404 37.4249 209.424 37.1287 208.909C36.8325 208.393 35.6141 208.538 34.4072 209.231C33.2004 209.925 32.4622 210.905 32.7584 211.42C33.0546 211.936 34.273 211.791 35.4799 211.098Z" fill="#001524"/>
<path fill-rule="evenodd" clip-rule="evenodd" d="M98.8754 213.247C100.529 212.293 101.616 211.079 101.302 210.537C100.989 209.994 99.3948 210.328 97.7412 211.283C96.0876 212.238 95.001 213.451 95.3142 213.994C95.6274 214.536 97.2218 214.202 98.8754 213.247Z" fill="#001524"/>
<path fill-rule="evenodd" clip-rule="evenodd" d="M62.4302 242.107C62.5126 241.608 61.5673 241.037 60.3189 240.831C59.0706 240.625 57.9918 240.862 57.9095 241.36C57.8271 241.859 58.7724 242.43 60.0208 242.636C61.2691 242.842 62.3479 242.605 62.4302 242.107Z" fill="#001524"/>
<path fill-rule="evenodd" clip-rule="evenodd" d="M38.8683 219.299C38.9506 218.801 38.0054 218.229 36.757 218.023C35.5086 217.817 34.4299 218.054 34.3475 218.552C34.2652 219.051 35.2104 219.622 36.4588 219.828C37.7072 220.035 38.7859 219.798 38.8683 219.299Z" fill="#001524"/>
<path fill-rule="evenodd" clip-rule="evenodd" d="M21.5106 229.108C21.5929 228.61 20.6477 228.038 19.3993 227.832C18.1509 227.626 17.0722 227.863 16.9898 228.361C16.9075 228.86 17.8527 229.431 19.1011 229.637C20.3495 229.844 21.4282 229.607 21.5106 229.108Z" fill="#001524"/>
<path fill-rule="evenodd" clip-rule="evenodd" d="M110.165 229.706C111.819 228.751 112.905 227.537 112.592 226.995C112.279 226.452 110.685 226.787 109.031 227.741C107.378 228.696 106.291 229.91 106.604 230.452C106.917 230.995 108.512 230.66 110.165 229.706Z" fill="#001524"/>
<path fill-rule="evenodd" clip-rule="evenodd" d="M78.6781 197.943C80.3317 196.989 81.4183 195.775 81.1051 195.232C80.7919 194.69 79.1976 195.024 77.544 195.979C75.8904 196.934 74.8038 198.147 75.117 198.69C75.4302 199.232 77.0246 198.898 78.6781 197.943Z" fill="#001524"/>
<path fill-rule="evenodd" clip-rule="evenodd" d="M91.9828 247.98C92.4054 247.518 91.6055 246.099 90.1962 244.81C88.7869 243.522 87.3018 242.853 86.8792 243.315C86.4566 243.777 87.2565 245.196 88.6658 246.485C90.0751 247.773 91.5602 248.442 91.9828 247.98Z" fill="#001524"/>
<path fill-rule="evenodd" clip-rule="evenodd" d="M116.855 219.849C117.278 219.387 116.478 217.967 115.068 216.679C113.659 215.391 112.174 214.721 111.751 215.184C111.329 215.646 112.129 217.065 113.538 218.353C114.947 219.642 116.432 220.311 116.855 219.849Z" fill="#001524"/>
<path fill-rule="evenodd" clip-rule="evenodd" d="M96.257 203.518C96.6796 203.056 95.8797 201.637 94.4704 200.349C93.061 199.061 91.576 198.391 91.1534 198.853C90.7308 199.316 91.5307 200.735 92.94 202.023C94.3493 203.311 95.8344 203.981 96.257 203.518Z" fill="#001524"/>
<path fill-rule="evenodd" clip-rule="evenodd" d="M74.8326 250.459C75.0036 249.856 73.6531 248.945 71.8162 248.424C69.9793 247.903 68.3516 247.969 68.1807 248.572C68.0097 249.174 69.3602 250.085 71.1971 250.606C73.0339 251.128 74.6616 251.062 74.8326 250.459Z" fill="#001524"/>
<path fill-rule="evenodd" clip-rule="evenodd" d="M25.645 232.621C27.2986 231.666 28.3852 230.453 28.072 229.91C27.7588 229.368 26.1644 229.702 24.5109 230.657C22.8573 231.611 21.7707 232.825 22.0839 233.368C22.397 233.91 23.9914 233.576 25.645 232.621Z" fill="#001524"/>
<path fill-rule="evenodd" clip-rule="evenodd" d="M56.3463 222.171C58.1036 221.424 59.3294 220.351 59.0844 219.774C58.8393 219.198 57.2162 219.336 55.459 220.083C53.7018 220.83 52.4759 221.903 52.721 222.479C52.966 223.056 54.5891 222.918 56.3463 222.171Z" fill="#001524"/>
<path fill-rule="evenodd" clip-rule="evenodd" d="M64.8408 205.925C66.598 205.178 67.8238 204.105 67.5788 203.529C67.3337 202.952 65.7106 203.091 63.9534 203.838C62.1962 204.584 60.9703 205.657 61.2154 206.234C61.4604 206.81 63.0836 206.672 64.8408 205.925Z" fill="#001524"/>
<path fill-rule="evenodd" clip-rule="evenodd" d="M54.6034 250.863C56.7481 249.952 58.2018 248.542 57.8504 247.716C57.499 246.889 55.4756 246.958 53.3309 247.87C51.1862 248.782 49.7325 250.191 50.0839 251.017C50.4352 251.844 52.4587 251.775 54.6034 250.863Z" fill="#001524"/>
<path fill-rule="evenodd" clip-rule="evenodd" d="M83.6303 241.158C84.5849 239.505 84.9191 237.91 84.3767 237.597C83.8342 237.284 82.6206 238.37 81.6659 240.024C80.7112 241.678 80.377 243.272 80.9194 243.585C81.4619 243.898 82.6756 242.812 83.6303 241.158Z" fill="#001524"/>
<path fill-rule="evenodd" clip-rule="evenodd" d="M40.2492 232.636C40.7443 232.319 40.5281 231.098 39.7664 229.909C39.0047 228.72 37.9858 228.013 37.4907 228.33C36.9956 228.647 37.2117 229.868 37.9735 231.057C38.7352 232.247 39.7541 232.954 40.2492 232.636Z" fill="#001524"/>
<path fill-rule="evenodd" clip-rule="evenodd" d="M56.3725 235.854C56.9074 235.511 56.4254 233.804 55.296 232.041C54.1666 230.277 52.8173 229.126 52.2824 229.468C51.7475 229.811 52.2295 231.518 53.3589 233.281C54.4883 235.045 55.8376 236.197 56.3725 235.854Z" fill="#001524"/>
<path fill-rule="evenodd" clip-rule="evenodd" d="M77.4164 227.826C77.9513 227.484 77.4693 225.776 76.3399 224.013C75.2105 222.25 73.8612 221.098 73.3263 221.441C72.7914 221.783 73.2734 223.491 74.4028 225.254C75.5323 227.017 76.8815 228.169 77.4164 227.826Z" fill="#001524"/>
<path fill-rule="evenodd" clip-rule="evenodd" d="M46.4677 241.222C46.9616 240.904 46.7437 239.685 45.9811 238.499C45.2185 237.313 44.1999 236.608 43.706 236.926C43.2121 237.243 43.43 238.462 44.1926 239.649C44.9552 240.835 45.9738 241.539 46.4677 241.222Z" fill="#001524"/>
<path fill-rule="evenodd" clip-rule="evenodd" d="M25.9138 222.162C26.4089 221.845 26.1928 220.624 25.431 219.435C24.6693 218.246 23.6505 217.539 23.1553 217.856C22.6602 218.173 22.8764 219.394 23.6381 220.583C24.3998 221.772 25.4187 222.479 25.9138 222.162Z" fill="#001524"/>
<path fill-rule="evenodd" clip-rule="evenodd" d="M88.6073 209.055C89.1025 208.737 88.8863 207.516 88.1246 206.327C87.3629 205.138 86.344 204.431 85.8489 204.748C85.3538 205.065 85.5699 206.286 86.3316 207.475C87.0934 208.665 88.1122 209.372 88.6073 209.055Z" fill="#001524"/>
<path fill-rule="evenodd" clip-rule="evenodd" d="M89.1656 218.837C89.6607 218.52 89.4445 217.299 88.6828 216.11C87.9211 214.92 86.9022 214.213 86.4071 214.531C85.912 214.848 86.1281 216.069 86.8899 217.258C87.6516 218.447 88.6705 219.154 89.1656 218.837Z" fill="#001524"/>
<path fill-rule="evenodd" clip-rule="evenodd" d="M67.9294 232.416C68.243 231.918 67.5287 230.904 66.3341 230.151C65.1394 229.398 63.9167 229.191 63.6032 229.688C63.2896 230.185 64.0039 231.199 65.1985 231.952C66.3932 232.705 67.6159 232.913 67.9294 232.416Z" fill="#001524"/>
<path fill-rule="evenodd" clip-rule="evenodd" d="M75.1976 234.433C75.4754 233.454 75.3976 232.574 75.0239 232.468C74.6501 232.362 74.1219 233.069 73.844 234.049C73.5662 235.028 73.644 235.908 74.0178 236.014C74.3915 236.12 74.9198 235.412 75.1976 234.433Z" fill="#001524"/>
<path fill-rule="evenodd" clip-rule="evenodd" d="M41.3619 200.619C41.6398 199.64 41.562 198.76 41.1882 198.654C40.8144 198.548 40.2862 199.256 40.0084 200.235C39.7306 201.214 39.8084 202.094 40.1821 202.2C40.5559 202.306 41.0841 201.598 41.3619 200.619Z" fill="#001524"/>
<path fill-rule="evenodd" clip-rule="evenodd" d="M101.248 219.571C101.526 218.592 101.448 217.712 101.074 217.606C100.7 217.5 100.172 218.208 99.8943 219.187C99.6165 220.166 99.6943 221.046 100.068 221.152C100.442 221.258 100.97 220.55 101.248 219.571Z" fill="#001524"/>
<path fill-rule="evenodd" clip-rule="evenodd" d="M99.6892 228.886C100.184 228.569 99.9681 227.348 99.2064 226.159C98.4447 224.97 97.4258 224.263 96.9307 224.58C96.4356 224.897 96.6517 226.118 97.4135 227.307C98.1752 228.496 99.1941 229.203 99.6892 228.886Z" fill="#001524"/>
<path fill-rule="evenodd" clip-rule="evenodd" d="M107.93 217.703C108.425 217.386 108.209 216.165 107.448 214.976C106.686 213.786 105.667 213.079 105.172 213.397C104.677 213.714 104.893 214.935 105.655 216.124C106.416 217.313 107.435 218.02 107.93 217.703Z" fill="#001524"/>
<path fill-rule="evenodd" clip-rule="evenodd" d="M47.7078 219.647C49.2717 217.772 50.1497 215.927 49.6687 215.526C49.1878 215.125 47.5301 216.319 45.9661 218.194C44.4022 220.068 43.5242 221.913 44.0052 222.314C44.4861 222.715 46.1438 221.521 47.7078 219.647Z" fill="#001524"/>
<path fill-rule="evenodd" clip-rule="evenodd" d="M42.398 251.183C43.1802 250.246 43.4244 249.16 42.9435 248.759C42.4625 248.358 41.4385 248.793 40.6563 249.73C39.8741 250.668 39.6299 251.753 40.1108 252.154C40.5918 252.556 41.6158 252.121 42.398 251.183Z" fill="#001524"/>
<path fill-rule="evenodd" clip-rule="evenodd" d="M75.1459 211.288C76.7837 209.325 77.4861 207.212 76.7147 206.569C75.9434 205.925 73.9904 206.995 72.3527 208.958C70.7149 210.921 70.0125 213.034 70.7838 213.677C71.5552 214.321 73.5081 213.251 75.1459 211.288Z" fill="#001524"/>
<path fill-rule="evenodd" clip-rule="evenodd" d="M50.7334 203.755C52.2974 201.88 53.1753 200.035 52.6944 199.634C52.2134 199.233 50.5557 200.427 48.9917 202.301C47.4278 204.176 46.5498 206.021 47.0308 206.422C47.5117 206.823 49.1695 205.629 50.7334 203.755Z" fill="#001524"/>
<path fill-rule="evenodd" clip-rule="evenodd" d="M122.056 219.132C122.056 219.132 126.305 220.202 128.286 217.782C129.957 215.735 128.702 206.904 128.702 206.904C128.702 206.904 124.966 216.379 122.056 219.132Z" fill="#001524"/>
<path d="M19.2465 411.999H164.963V412.802H19.2465V411.999Z" fill="#001524"/>
<path d="M167.601 411.999H181.007V412.802H167.601V411.999Z" fill="#001524"/>
<path d="M48.4622 407.064H76.6097V407.867H48.4622V407.064Z" fill="white"/>
<path d="M89.8443 407.064H117.992V407.867H89.8443V407.064Z" fill="white"/>
<path fill-rule="evenodd" clip-rule="evenodd" d="M67.8821 160.775C68.1633 160.638 68.2472 160.231 68.0694 159.864C67.8917 159.497 67.5197 159.31 67.2385 159.446C66.9573 159.582 66.8734 159.99 67.0511 160.357C67.2288 160.724 67.6009 160.911 67.8821 160.775Z" fill="#001524"/>
<path fill-rule="evenodd" clip-rule="evenodd" d="M60.5161 166.538C60.4332 166.538 60.3524 166.512 60.2847 166.465C60.1617 166.379 59.0703 165.597 58.6798 164.818C58.5801 164.62 58.6597 164.379 58.8577 164.279C59.0556 164.18 59.2969 164.259 59.3966 164.457C59.6534 164.967 60.4586 165.606 60.7488 165.809C60.8915 165.91 60.9525 166.092 60.8997 166.258C60.8468 166.425 60.6922 166.538 60.5174 166.538H60.5161Z" fill="#001524"/>
<path fill-rule="evenodd" clip-rule="evenodd" d="M58.4611 166.318C58.5073 166.494 58.6666 166.617 58.8489 166.617C58.8831 166.618 58.9173 166.615 58.9506 166.607C59.1647 166.55 59.2928 166.331 59.2368 166.117C58.9024 164.84 59.6768 164.209 59.8266 164.102C59.8886 164.087 59.9461 164.057 59.9938 164.015C60.161 163.87 60.1789 163.616 60.0339 163.449C59.8911 163.291 59.655 163.26 59.4762 163.376C58.964 163.643 58.0425 164.713 58.4611 166.318Z" fill="#001524"/>
<path fill-rule="evenodd" clip-rule="evenodd" d="M64.5546 157.319C64.6139 157.474 64.7625 157.576 64.9285 157.577C65.0293 157.577 65.1267 157.54 65.2013 157.472C66.1803 156.584 67.0964 156.979 67.2609 157.062C67.3025 157.11 67.3554 157.147 67.4147 157.17C67.6208 157.251 67.8537 157.15 67.935 156.944C68.0096 156.743 67.9253 156.518 67.7371 156.416C67.2663 156.087 65.8861 155.766 64.661 156.877C64.5376 156.988 64.4953 157.164 64.5546 157.319Z" fill="#001524"/>
<path fill-rule="evenodd" clip-rule="evenodd" d="M69.139 169.878C67.8665 169.902 66.6249 169.485 65.6243 168.699C65.5087 168.611 65.4499 168.467 65.4705 168.323C65.4912 168.179 65.588 168.058 65.7237 168.005C65.8595 167.953 66.0128 167.979 66.1245 168.072C68.3981 169.884 71.3805 168.676 71.41 168.663C71.6132 168.584 71.8424 168.681 71.926 168.883C72.0096 169.084 71.917 169.316 71.7176 169.404C70.8939 169.717 70.0202 169.878 69.139 169.878Z" fill="#001524"/>
<path d="M4.30612 179.53C1.99877 175.959 0.845091 174.173 1.23777 172.347C1.63044 170.521 3.41613 169.367 6.98749 167.06L13.6165 162.777C17.1879 160.47 18.9735 159.316 20.7998 159.709C22.6261 160.101 23.7798 161.887 26.0871 165.458L30.3699 172.087C32.6773 175.659 33.831 177.444 33.4383 179.271C33.0456 181.097 31.2599 182.251 27.6886 184.558L21.0596 188.841C17.4882 191.148 15.7025 192.302 13.8762 191.909C12.05 191.517 10.8963 189.731 8.58893 186.159L4.30612 179.53Z" fill="#001524"/>
<path d="M183.06 134.326C185.012 130.549 185.988 128.66 187.768 128.094C189.548 127.527 191.437 128.503 195.214 130.455L214.885 140.624C218.662 142.576 220.551 143.552 221.118 145.332C221.685 147.112 220.708 149.001 218.756 152.778L215.132 159.789C213.18 163.566 212.203 165.454 210.423 166.021C208.644 166.588 206.755 165.612 202.978 163.66L183.306 153.491C179.529 151.539 177.641 150.563 177.074 148.783C176.507 147.003 177.483 145.114 179.436 141.337L183.06 134.326Z" fill="#001524"/>
<path d="M198.404 138.165C198.393 138.014 198.388 137.938 198.435 137.907C198.481 137.876 198.549 137.911 198.683 137.981L201.289 139.327C201.431 139.401 201.551 139.509 201.639 139.641C201.726 139.772 201.777 139.922 201.787 140.076L202.323 148.251C202.325 148.281 202.32 148.31 202.306 148.336C202.293 148.362 202.272 148.383 202.247 148.398L195.381 152.607C195.215 152.712 195.022 152.77 194.821 152.777C194.62 152.784 194.418 152.738 194.237 152.645L191.764 151.367C191.63 151.298 191.563 151.263 191.561 151.207C191.559 151.151 191.623 151.112 191.752 151.034L198.82 146.739C198.917 146.679 198.966 146.65 198.991 146.602C199.015 146.554 199.011 146.497 199.003 146.384L198.404 138.165Z" fill="white"/>
<path d="M202.926 142.396C202.921 142.322 202.999 142.27 203.066 142.304L205.127 143.37C205.233 143.426 205.323 143.508 205.388 143.607C205.453 143.706 205.492 143.818 205.499 143.933L205.903 150.124C205.905 150.149 205.9 150.173 205.889 150.195C205.877 150.217 205.86 150.235 205.839 150.248L200.658 153.436C200.531 153.512 200.385 153.554 200.234 153.558C200.082 153.562 199.931 153.528 199.794 153.458L197.826 152.441C197.76 152.407 197.757 152.313 197.821 152.274L203.303 148.946C203.365 148.909 203.4 148.84 203.395 148.769L202.926 142.396Z" fill="white"/>
<path d="M194.915 138.256C194.909 138.182 194.988 138.13 195.054 138.164L197.116 139.229C197.222 139.286 197.312 139.367 197.378 139.466C197.443 139.565 197.481 139.678 197.488 139.793L197.894 145.985C197.896 146.01 197.891 146.034 197.88 146.056C197.869 146.078 197.851 146.096 197.83 146.109L192.644 149.294C192.518 149.372 192.371 149.416 192.219 149.419C192.066 149.423 191.914 149.387 191.777 149.315L189.815 148.301C189.749 148.267 189.745 148.173 189.809 148.134L195.29 144.805C195.351 144.768 195.386 144.699 195.381 144.627L194.915 138.256Z" fill="white"/>
<path d="M219.627 216.789L217.175 217.53L218.345 219.808C218.37 219.853 218.385 219.903 218.39 219.954C218.395 220.006 218.39 220.058 218.374 220.107C218.359 220.156 218.334 220.202 218.301 220.241C218.268 220.281 218.227 220.313 218.181 220.337C218.136 220.36 218.085 220.374 218.034 220.378C217.983 220.382 217.931 220.376 217.882 220.36C217.833 220.343 217.788 220.318 217.749 220.284C217.71 220.25 217.679 220.209 217.656 220.162L216.273 217.47C216.247 217.419 216.232 217.364 216.23 217.307C216.228 217.25 216.239 217.194 216.261 217.141C216.283 217.089 216.316 217.042 216.359 217.004C216.401 216.966 216.451 216.938 216.505 216.922L219.403 216.047C219.502 216.017 219.608 216.028 219.698 216.076C219.789 216.125 219.856 216.207 219.886 216.306C219.916 216.404 219.905 216.511 219.857 216.601C219.808 216.692 219.725 216.759 219.627 216.789ZM226.951 221.356L225.568 218.663C225.544 218.618 225.512 218.578 225.474 218.545C225.435 218.512 225.39 218.487 225.341 218.472C225.293 218.456 225.242 218.45 225.191 218.454C225.14 218.459 225.091 218.473 225.046 218.496C224.954 218.543 224.885 218.624 224.854 218.722C224.822 218.82 224.831 218.927 224.878 219.018L226.049 221.296L223.597 222.037C223.547 222.051 223.501 222.075 223.46 222.107C223.42 222.139 223.387 222.179 223.362 222.224C223.337 222.269 223.321 222.319 223.316 222.37C223.311 222.421 223.316 222.473 223.33 222.522C223.345 222.572 223.37 222.617 223.403 222.657C223.436 222.697 223.476 222.73 223.522 222.754C223.567 222.777 223.617 222.792 223.669 222.796C223.72 222.801 223.772 222.795 223.821 222.779L226.718 221.904C226.773 221.887 226.823 221.859 226.865 221.821C226.907 221.783 226.941 221.737 226.963 221.684C226.985 221.632 226.996 221.575 226.994 221.519C226.992 221.462 226.977 221.406 226.951 221.356ZM224.969 215.811C224.931 215.776 224.888 215.749 224.84 215.731C224.792 215.714 224.742 215.705 224.691 215.707C224.64 215.709 224.59 215.721 224.544 215.742C224.497 215.763 224.456 215.793 224.421 215.83L218.235 222.467C218.201 222.505 218.174 222.548 218.156 222.596C218.138 222.644 218.13 222.695 218.131 222.746C218.133 222.797 218.145 222.847 218.166 222.893C218.187 222.939 218.217 222.981 218.255 223.016C218.288 223.046 218.326 223.071 218.368 223.088C218.441 223.119 218.522 223.127 218.6 223.111C218.678 223.094 218.749 223.054 218.803 222.996L224.988 216.359C225.023 216.321 225.05 216.278 225.068 216.23C225.086 216.182 225.094 216.131 225.092 216.081C225.09 216.03 225.078 215.98 225.057 215.933C225.036 215.887 225.006 215.845 224.969 215.811Z" fill="#001524"/>
<path d="M204.591 197.703C205.592 197.408 206.164 196.355 205.869 195.354L205.333 193.541L203.52 194.076C202.519 194.372 201.946 195.424 202.242 196.425C202.537 197.426 203.59 197.999 204.591 197.703Z" fill="white" fill-opacity="0.7"/>
<path d="M201.171 192.799C200.875 191.798 201.448 190.745 202.449 190.45L204.262 189.914L205.333 193.541L203.52 194.076C202.519 194.372 201.467 193.8 201.171 192.799Z" fill="white" fill-opacity="0.85"/>
<path d="M200.1 189.172C199.804 188.171 200.377 187.119 201.378 186.823L203.191 186.288L204.262 189.914L202.449 190.45C201.448 190.745 200.396 190.173 200.1 189.172Z" fill="white"/>
<path d="M203.191 186.288L205.005 185.752C206.006 185.457 207.058 186.029 207.354 187.03C207.649 188.031 207.077 189.084 206.076 189.379L204.262 189.914L203.191 186.288Z" fill="white" fill-opacity="0.8"/>
<path d="M208.425 190.657C208.72 191.658 208.148 192.71 207.147 193.006C206.146 193.301 205.093 192.729 204.798 191.728C204.502 190.727 205.075 189.675 206.076 189.379C207.077 189.084 208.129 189.656 208.425 190.657Z" fill="white" fill-opacity="0.7"/>
<path d="M19.2209 171.981C19.2209 171.981 19.9577 175.373 20.0165 175.649C19.8536 175.425 16.224 170.661 16.224 170.661C14.6707 171.554 14.4775 173.141 14.7107 174.564C14.7107 174.564 15.2554 178.076 15.2992 178.376C15.1641 178.156 13.3545 175.389 13.3545 175.389C12.4356 174.009 10.6234 173.89 9.563 174.499L15.3292 181.564C16.9533 180.621 17.1978 179.014 16.9843 177.579C16.9843 177.579 16.5061 174.479 16.4801 174.341C16.5494 174.445 20.0173 178.87 20.0173 178.87C21.6514 177.931 21.9364 176.392 21.7586 174.99L20.8096 168.038C19.202 168.959 18.9847 170.552 19.2223 171.981L19.2209 171.981Z" fill="white"/>
<path d="M3.0759 206.078C3.21788 206.285 3.27207 206.54 3.22663 206.787C3.18119 207.034 3.03982 207.253 2.83341 207.396C2.62611 207.538 2.37101 207.592 2.12393 207.546C1.87686 207.501 1.65793 207.359 1.51506 207.152C1.37326 206.945 1.3193 206.69 1.36498 206.443C1.41066 206.196 1.55226 205.977 1.7588 205.835L2.53891 205.298L3.0759 206.078ZM3.46936 205.807C3.3276 205.6 3.27362 205.345 3.31924 205.098C3.36486 204.851 3.50635 204.632 3.71279 204.49C3.9199 204.348 4.17475 204.294 4.42162 204.339C4.66849 204.385 4.88729 204.526 5.03019 204.733L6.37542 206.687C6.51732 206.894 6.57141 207.149 6.52588 207.396C6.48034 207.643 6.33887 207.862 6.13241 208.005C5.92516 208.147 5.67019 208.201 5.42324 208.155C5.1763 208.109 4.95746 207.968 4.81458 207.761L3.46936 205.807ZM2.09268 202.136C1.88554 202.278 1.63072 202.332 1.38388 202.286C1.13704 202.241 0.918248 202.099 0.775279 201.893C0.63338 201.686 0.579286 201.431 0.624823 201.184C0.670361 200.937 0.811825 200.718 1.01829 200.575C1.22554 200.433 1.48051 200.379 1.72746 200.425C1.9744 200.471 2.19324 200.612 2.33612 200.819L2.8731 201.599L2.09268 202.136ZM2.36352 202.529C2.57071 202.388 2.82561 202.334 3.0725 202.379C3.31939 202.425 3.53821 202.566 3.68113 202.773C3.82291 202.98 3.87691 203.235 3.83134 203.482C3.78576 203.729 3.64432 203.947 3.43791 204.09L1.48392 205.435C1.27673 205.577 1.02178 205.631 0.774813 205.586C0.527848 205.54 0.308958 205.399 0.165997 205.192C0.0241799 204.985 -0.0298128 204.73 0.0158224 204.483C0.0614577 204.236 0.203009 204.017 0.409529 203.874L2.36352 202.529ZM6.03415 201.153C5.89233 200.946 5.83834 200.691 5.88398 200.444C5.92961 200.197 6.07116 199.978 6.27768 199.835C6.48488 199.693 6.73983 199.639 6.98679 199.685C7.23375 199.73 7.45264 199.872 7.5956 200.078C7.73742 200.285 7.79141 200.54 7.74578 200.787C7.70014 201.034 7.55859 201.253 7.35207 201.396L6.57134 201.933L6.03415 201.153ZM5.64162 201.423C5.78347 201.63 5.83745 201.886 5.79176 202.133C5.74606 202.38 5.60441 202.598 5.39778 202.741C5.19061 202.883 4.93574 202.937 4.68889 202.891C4.44204 202.846 4.22329 202.704 4.08047 202.498L2.73546 200.544C2.5935 200.337 2.53933 200.082 2.58482 199.835C2.6303 199.588 2.77172 199.369 2.97816 199.226C3.1854 199.084 3.44048 199.03 3.68757 199.075C3.93467 199.121 4.15365 199.263 4.2966 199.469L5.64162 201.423ZM7.01746 205.094C7.22471 204.952 7.47979 204.898 7.72688 204.944C7.97397 204.989 8.19295 205.131 8.33591 205.337C8.47788 205.545 8.53195 205.8 8.48629 206.047C8.44064 206.294 8.29896 206.513 8.09228 206.656C7.88506 206.797 7.63011 206.851 7.38321 206.806C7.13631 206.76 6.91754 206.619 6.77476 206.412L6.23735 205.631L7.01746 205.094ZM6.74727 204.702C6.53999 204.844 6.28497 204.897 6.03801 204.852C5.79105 204.806 5.57227 204.664 5.42953 204.458C5.28771 204.251 5.23367 203.996 5.27923 203.749C5.3248 203.502 5.46625 203.283 5.67266 203.141L7.62696 201.795C7.83407 201.653 8.08897 201.599 8.33591 201.645C8.58285 201.69 8.80173 201.832 8.94467 202.038C9.08672 202.245 9.1409 202.5 9.09534 202.747C9.04977 202.995 8.90819 203.214 8.70156 203.356L6.74727 204.702Z" fill="#001524"/>
</svg>
