<svg width="113" height="30" viewBox="0 0 113 30" fill="none" xmlns="http://www.w3.org/2000/svg">
<g clip-path="url(#clip0_2001_5342)">
<path d="M6.43499 1.37939C6.28657 1.13715 6.21236 1.01604 6.26382 0.924156C6.31528 0.832275 6.45732 0.832275 6.74142 0.832275H12.2457C12.5457 0.833626 12.8401 0.910015 13.0992 1.05375C13.3582 1.19749 13.5728 1.4035 13.7214 1.65105L21.6581 14.8197C21.6878 14.8664 21.7036 14.92 21.7036 14.9746C21.7036 15.0292 21.6878 15.0827 21.6581 15.1294L13.8375 28.062C13.6517 28.3793 13.3801 28.644 13.0508 28.8283C12.7214 29.0129 12.3462 29.1106 11.9638 29.1117H6.73993C6.45641 29.1117 6.31466 29.1117 6.26318 29.0199C6.21168 28.9282 6.28549 28.8071 6.43314 28.5651L14.5151 15.3156C14.6264 15.133 14.6821 15.0417 14.682 14.9405C14.6819 14.8394 14.6261 14.7482 14.5143 14.5658L6.43499 1.37939Z" fill="#0F6FFF"/>
<path d="M17.6199 4.53855C17.5465 4.41883 17.6326 4.26489 17.7731 4.26489H22.1278C22.3527 4.26784 22.5732 4.32654 22.7671 4.43516C22.961 4.54378 23.1216 4.69856 23.2332 4.88423L29.2409 14.8565C29.2652 14.8964 29.2779 14.9417 29.2779 14.9877C29.2779 15.0338 29.2652 15.0791 29.2409 15.1189L23.3493 24.897C23.2043 25.1333 22.9971 25.3297 22.748 25.4668C22.499 25.6039 22.2167 25.677 21.9287 25.6791H17.7722C17.632 25.6791 17.5458 25.5255 17.6189 25.4058L23.8923 15.1335C23.9625 15.0183 23.9625 14.8733 23.8917 14.7582L17.6199 4.53855Z" fill="#0F6FFF"/>
<path d="M0.696337 4.5385C0.622923 4.41877 0.709074 4.26489 0.849517 4.26489H5.20432C5.42963 4.2668 5.65044 4.32503 5.84448 4.43376C6.03854 4.54249 6.199 4.69786 6.30972 4.88423L12.323 14.8565C12.3472 14.8964 12.36 14.9417 12.36 14.9877C12.36 15.0338 12.3472 15.0791 12.323 15.1189L6.42024 24.897C6.27748 25.1361 6.07002 25.3349 5.81933 25.4723C5.56863 25.6098 5.2838 25.6811 4.99431 25.6791H0.848697C0.708431 25.6791 0.622252 25.5255 0.695313 25.4058L6.96346 15.1334C7.03374 15.0182 7.03357 14.8734 6.96305 14.7584L0.696337 4.5385Z" fill="#0F6FFF"/>
<path d="M44.9336 12.1498C44.9181 11.8898 44.8479 11.6361 44.7275 11.4052C44.6071 11.1743 44.4395 10.9714 44.2353 10.8097C43.823 10.4885 43.2372 10.327 42.4777 10.3252C42.0493 10.3136 41.6224 10.38 41.2176 10.5211C40.9193 10.6254 40.6571 10.8132 40.4625 11.0623C40.2974 11.2864 40.2072 11.557 40.2049 11.8354C40.1899 12.0582 40.241 12.2805 40.3517 12.4745C40.4694 12.6703 40.6307 12.8361 40.8233 12.959C41.0582 13.1114 41.311 13.2343 41.5758 13.3249C41.8998 13.4369 42.2303 13.5289 42.5654 13.6006L43.9493 13.9022C44.6775 14.0517 45.3864 14.2834 46.0624 14.5928C46.63 14.8509 47.1521 15.199 47.6087 15.6236C48.0186 16.011 48.3418 16.4809 48.5569 17.0023C48.7804 17.5575 48.8935 18.1511 48.8895 18.7496C48.9098 19.6822 48.6396 20.598 48.1163 21.3703C47.5669 22.132 46.8048 22.7147 45.9258 23.0455C44.8265 23.46 43.6573 23.6577 42.4829 23.6279C41.2797 23.6545 40.0829 23.4487 38.9575 23.0223C38.0045 22.6675 37.1833 22.0289 36.6047 21.1926C36.0481 20.3679 35.762 19.3259 35.7466 18.0666H39.4755C39.4897 18.527 39.6345 18.9739 39.8929 19.3552C40.1545 19.7108 40.5121 19.9842 40.9238 20.1438C41.4039 20.3269 41.9151 20.4144 42.4288 20.4015C42.8856 20.4133 43.3405 20.3416 43.7714 20.1902C44.1049 20.0744 44.4005 19.8705 44.6271 19.5999C44.8236 19.3539 44.9316 19.049 44.9336 18.7341C44.932 18.4513 44.8317 18.1779 44.6502 17.961C44.4152 17.7091 44.125 17.515 43.8023 17.394C43.3319 17.2064 42.8466 17.0581 42.3515 16.9508L40.6661 16.5565C39.271 16.237 38.1725 15.7215 37.3702 15.0103C36.5677 14.299 36.1692 13.3283 36.1744 12.0982C36.1485 11.1606 36.4301 10.2402 36.9758 9.47739C37.5509 8.70064 38.3257 8.09417 39.2179 7.72244C40.2512 7.28734 41.3644 7.07315 42.4856 7.09364C43.6034 7.06771 44.7138 7.28398 45.7404 7.7276C46.6072 8.10587 47.35 8.72024 47.8844 9.50059C48.3977 10.2871 48.6667 11.208 48.6575 12.1472L44.9336 12.1498Z" fill="#011F32"/>
<path d="M57.4606 11.3458V14.1805H49.8352V11.3458H57.4606ZM51.4329 8.44922H55.2805V19.6335C55.2724 19.8298 55.3114 20.0249 55.3939 20.2031C55.4648 20.3424 55.5838 20.4513 55.729 20.5097C55.893 20.5738 56.068 20.6055 56.2443 20.6026C56.4008 20.6011 56.5568 20.5864 56.7108 20.5587C56.8782 20.5303 57.0019 20.5047 57.087 20.484L57.6694 23.2621C57.4838 23.3135 57.2261 23.3805 56.8962 23.4579C56.5041 23.5447 56.1047 23.5949 55.7031 23.6073C54.9163 23.6656 54.126 23.5577 53.3837 23.2903C52.7757 23.0648 52.2586 22.6456 51.9123 22.0972C51.5538 21.4798 51.3828 20.7717 51.4202 20.0587L51.4329 8.44922Z" fill="#011F32"/>
<path d="M59.2053 23.4371V11.3457H62.9445V13.549H63.0708C63.228 12.8539 63.6059 12.2283 64.148 11.7657C64.6438 11.3775 65.2579 11.171 65.8875 11.1808C66.0719 11.1815 66.2561 11.1935 66.439 11.2168C66.6133 11.239 66.7856 11.2743 66.9543 11.3225V14.6752C66.7197 14.6007 66.4778 14.5506 66.2329 14.5257C65.9706 14.4911 65.7062 14.4722 65.4418 14.469C65.0118 14.4635 64.5877 14.5682 64.2098 14.7731C63.8514 14.9693 63.5544 15.261 63.3517 15.6158C63.1387 16.002 63.032 16.4377 63.0424 16.8786V23.4371H59.2053Z" fill="#011F32"/>
<path d="M70.2557 9.93606C69.7358 9.94686 69.2325 9.75349 68.8538 9.39746C68.6705 9.23427 68.5239 9.0342 68.4236 8.81035C68.3232 8.58652 68.2712 8.34396 68.2712 8.09864C68.2712 7.85332 68.3232 7.61078 68.4236 7.38693C68.5239 7.16308 68.6705 6.963 68.8538 6.79981C69.2358 6.45322 69.7333 6.26123 70.2492 6.26123C70.7651 6.26123 71.2624 6.45322 71.6446 6.79981C71.8263 6.96388 71.9716 7.16425 72.071 7.38797C72.1706 7.61171 72.2219 7.85382 72.2219 8.09864C72.2219 8.34348 72.1706 8.58558 72.071 8.80931C71.9716 9.03303 71.8263 9.23341 71.6446 9.39746C71.2703 9.75248 70.7714 9.94595 70.2557 9.93606ZM68.3176 23.4372V11.3457H72.1679V23.4372H68.3176Z" fill="#011F32"/>
<path d="M78.8011 23.6071C77.9409 23.6192 77.0957 23.3811 76.3683 22.9216C75.5975 22.4128 74.9905 21.6913 74.6211 20.8447C74.1537 19.7579 73.932 18.5814 73.9717 17.3991C73.9717 15.9766 74.1967 14.8066 74.6469 13.8892C75.0246 13.0475 75.6411 12.3351 76.4199 11.8405C77.132 11.4049 77.951 11.1756 78.7856 11.1782C79.3471 11.1657 79.9039 11.2811 80.4142 11.5158C80.8408 11.7159 81.2216 12.0019 81.5328 12.3559C81.8095 12.6726 82.0348 13.0309 82.2001 13.4176H82.2801V7.31519H86.1275V23.4371H82.3187V21.4786H82.2001C82.0289 21.8635 81.7946 22.2171 81.5069 22.5249C81.1905 22.857 80.8088 23.1202 80.3859 23.2979C79.8851 23.5106 79.3451 23.6161 78.8011 23.6071ZM80.1384 20.6025C80.5717 20.6132 80.9948 20.472 81.3342 20.203C81.6913 19.9085 81.959 19.5202 82.1074 19.082C82.2937 18.5357 82.3811 17.9606 82.3651 17.3837C82.3798 16.8034 82.2925 16.2252 82.1074 15.6751C81.9601 15.2412 81.692 14.8585 81.3342 14.5721C80.9885 14.3128 80.5654 14.1775 80.1334 14.1881C79.6966 14.1753 79.2688 14.3136 78.9222 14.5798C78.5703 14.876 78.3111 15.2668 78.1749 15.706C77.993 16.2516 77.9059 16.8242 77.9172 17.3991C77.9051 17.9758 77.9925 18.5502 78.1749 19.0974C78.3168 19.5337 78.5773 19.9218 78.9274 20.2185C79.2734 20.4846 79.7022 20.6204 80.1384 20.6025Z" fill="#011F32"/>
<path d="M93.9953 23.6638C92.8591 23.6971 91.7331 23.4418 90.7223 22.9216C89.8184 22.4343 89.0827 21.6852 88.6118 20.7724C88.1009 19.7369 87.8523 18.5918 87.8877 17.4377C87.8591 16.3013 88.1114 15.1754 88.622 14.1597C89.0922 13.2452 89.8162 12.4856 90.7069 11.9718C91.6761 11.4346 92.7716 11.1676 93.8792 11.1987C94.6827 11.1833 95.4825 11.3134 96.2399 11.5827C96.936 11.8388 97.5676 12.2443 98.0901 12.7707C98.627 13.3243 99.0397 13.9858 99.3013 14.7112C99.6066 15.5596 99.7559 16.4563 99.7421 17.3578V18.3191H89.2277V16.0848H96.1522C96.1534 15.7004 96.053 15.3225 95.8609 14.9895C95.6764 14.6731 95.4092 14.4129 95.0879 14.2371C94.7334 14.0562 94.3406 13.9634 93.9428 13.9666C93.5448 13.9697 93.1536 14.0687 92.802 14.2551C92.4637 14.4422 92.1814 14.7161 91.9839 15.0485C91.7864 15.381 91.6809 15.76 91.6784 16.1466V18.4222C91.6686 18.869 91.7686 19.3115 91.9697 19.7106C92.1508 20.0725 92.434 20.3735 92.784 20.5765C93.1784 20.7921 93.6233 20.8982 94.0725 20.8832C94.3872 20.887 94.7005 20.8401 95.0002 20.744C95.2656 20.6565 95.5097 20.5143 95.7166 20.3266C95.9188 20.1402 96.0726 19.9077 96.1651 19.6488L99.7008 19.752C99.5667 20.512 99.2343 21.2232 98.7369 21.8135C98.2083 22.4228 97.5372 22.8919 96.7836 23.1794C95.8936 23.5174 94.9471 23.682 93.9953 23.6638Z" fill="#011F32"/>
<path d="M112.042 15.0361L108.504 15.1314C108.47 14.8835 108.366 14.6504 108.205 14.4588C108.034 14.2567 107.818 14.0978 107.574 13.9949C107.246 13.8678 106.895 13.8108 106.544 13.8276C106.193 13.8445 105.849 13.9349 105.535 14.0929C105.397 14.1561 105.279 14.2581 105.197 14.3867C105.116 14.5152 105.073 14.6647 105.074 14.817C105.072 14.9343 105.097 15.0504 105.146 15.1566C105.196 15.2629 105.269 15.3565 105.36 15.4303C105.675 15.6518 106.038 15.7949 106.419 15.8478L108.738 16.2885C109.941 16.5204 110.84 16.9035 111.434 17.4379C111.731 17.7061 111.967 18.036 112.123 18.4046C112.28 18.7731 112.354 19.1714 112.341 19.5717C112.352 20.3565 112.092 21.1211 111.604 21.7363C111.079 22.3794 110.394 22.8727 109.617 23.1666C108.699 23.5217 107.721 23.6967 106.736 23.6819C105.018 23.6819 103.658 23.3264 102.657 22.6152C102.182 22.291 101.783 21.8671 101.489 21.373C101.195 20.8791 101.012 20.3267 100.953 19.7546L104.754 19.6592C104.79 19.8606 104.866 20.0525 104.98 20.2229C105.093 20.393 105.24 20.5382 105.411 20.6489C105.817 20.8927 106.284 21.0127 106.757 20.9942C107.176 21.0131 107.593 20.9179 107.963 20.7184C108.1 20.6507 108.217 20.5468 108.3 20.4178C108.383 20.289 108.43 20.1398 108.434 19.9866C108.433 19.8554 108.4 19.7266 108.336 19.6118C108.273 19.4969 108.182 19.3999 108.071 19.3295C107.732 19.1266 107.355 18.9942 106.963 18.9403L104.847 18.5408C103.636 18.3226 102.734 17.9155 102.141 17.3193C101.846 17.0197 101.616 16.6626 101.464 16.2704C101.313 15.8781 101.243 15.4589 101.26 15.0386C101.237 14.2986 101.464 13.5723 101.904 12.977C102.385 12.3689 103.03 11.9111 103.762 11.6576C104.672 11.3359 105.632 11.1814 106.597 11.2014C108.236 11.2014 109.524 11.545 110.463 12.2322C110.92 12.5506 111.299 12.9681 111.573 13.4536C111.846 13.939 112.007 14.48 112.042 15.0361Z" fill="#011F32"/>
</g>
<defs>
<clipPath id="clip0_2001_5342">
<rect width="111.943" height="28.39" fill="white" transform="translate(0.528564 0.804932)"/>
</clipPath>
</defs>
</svg>
